<svg id="Capa_1" enable-background="new 0 0 512 512" height="16" viewBox="0 0 512 512" width="16" xmlns="http://www.w3.org/2000/svg"><path d="m484.854 118.22-16.41-45.107c-1.359-3.738-4.149-6.784-7.755-8.465-3.605-1.682-7.729-1.862-11.47-.502l-45.107 16.411c-7.784 2.833-11.8 11.439-8.967 19.225 2.831 7.785 11.435 11.799 19.225 8.968l12.644-4.6-120.111 216.803-94.588-39.78c-6.301-2.651-13.593-.706-17.739 4.728l-101.5 133c-5.026 6.585-3.761 15.998 2.824 21.023 2.718 2.074 5.916 3.077 9.089 3.077 4.517 0 8.983-2.033 11.936-5.901l94.459-123.773 96.301 40.501c7.063 2.969 15.225.141 18.937-6.558l126.542-228.415 3.5 9.622c2.216 6.092 7.969 9.876 14.097 9.875 1.702 0 3.435-.292 5.127-.908 7.784-2.832 11.8-11.439 8.966-19.224z" fill="#a5d02a"/><path d="m464.751 226.29c-.054 0-.107-.001-.159-.001-8.227 0-14.939 6.626-15.025 14.872l-.109 10.417-124.761-137.823c-5.32-5.877-14.285-6.611-20.49-1.682l-104.346 82.892-98.112 19.333c-8.144 1.605-13.444 9.507-11.84 17.651 1.605 8.143 9.501 13.444 17.651 11.84l101.695-20.038c2.355-.464 4.563-1.485 6.443-2.977l96.173-76.399 117.355 129.641-13.066-.137c-.054-.001-.107-.001-.159-.001-8.227 0-14.939 6.626-15.025 14.872-.087 8.299 6.571 15.098 14.871 15.184l48.089.502c.052.001.104.001.157.001 3.929 0 7.705-1.539 10.515-4.291 2.848-2.789 4.471-6.595 4.513-10.581l.502-48.089c.086-8.301-6.572-15.099-14.872-15.186z" fill="#e45a6e"/><path d="m497 482h-462c-2.757 0-5-2.243-5-5v-98h16c8.284 0 15-6.716 15-15s-6.716-15-15-15h-16v-105h16c8.284 0 15-6.716 15-15s-6.716-15-15-15h-16v-104.606h16c8.284 0 15-6.716 15-15s-6.716-15-15-15h-16v-64.394c0-8.284-6.716-15-15-15s-15 6.716-15 15v462c0 19.299 15.701 35 35 35h462c8.284 0 15-6.716 15-15s-6.716-15-15-15z" fill="#354a67"/><path d="m497 482h-209.119v30h209.119c8.284 0 15-6.716 15-15s-6.716-15-15-15z" fill="#233145"/><path d="m464.751 226.29c-.054 0-.107-.001-.159-.001-8.227 0-14.939 6.626-15.025 14.872l-.109 10.417-124.761-137.823c-5.32-5.877-14.285-6.611-20.49-1.682l-16.327 12.97v38.388l23.99-19.057 117.355 129.641-13.066-.137c-.054-.001-.107-.001-.159-.001-8.227 0-14.939 6.626-15.025 14.872-.087 8.299 6.571 15.098 14.871 15.184l48.089.502c.052.001.104.001.157.001 3.929 0 7.705-1.539 10.515-4.291 2.848-2.789 4.471-6.595 4.513-10.581l.502-48.089c.087-8.3-6.571-15.098-14.871-15.185z" fill="#d82e44"/><path d="m484.854 118.22-16.41-45.107c-1.359-3.738-4.149-6.784-7.755-8.465-3.605-1.682-7.729-1.862-11.47-.502l-45.107 16.411c-7.784 2.833-11.8 11.439-8.967 19.225 2.831 7.785 11.435 11.799 19.225 8.968l12.644-4.6-120.111 216.803-19.022-8v32.545l19.804 8.329c7.063 2.969 15.225.141 18.937-6.558l126.542-228.415 3.5 9.622c2.216 6.092 7.969 9.876 14.097 9.875 1.702 0 3.435-.292 5.127-.908 7.784-2.831 11.8-11.438 8.966-19.223z" fill="#90bc02"/></svg>